<?xml version="1.0" standalone="no"?><!DOCTYPE svg PUBLIC "-//W3C//DTD SVG 1.1//EN" "http://www.w3.org/Graphics/SVG/1.1/DTD/svg11.dtd"><svg t="1558667035133" class="icon" style="" viewBox="0 0 1024 1024" version="1.1" xmlns="http://www.w3.org/2000/svg" p-id="15288" xmlns:xlink="http://www.w3.org/1999/xlink" width="48" height="48"><defs><style type="text/css"></style></defs><path d="M441.691632 79.418044l125.94359 0 0 881.109746L441.691632 960.52779 441.691632 79.418044zM378.71883 1023.498578l251.889193 0L630.608023 16.445242 378.71883 16.445242 378.71883 1023.498578z" p-id="15289" fill="#f0a241"></path><path d="M63.859856 457.250826l125.942583 0 0 503.276964L63.859856 960.52779 63.859856 457.250826zM0.887054 1023.498578l251.889193 0L252.776247 394.280038 0.887054 394.280038 0.887054 1023.498578z" p-id="15290" fill="#f0a241"></path><path d="M819.359287 268.301208l125.674755 0 0 691.689919L819.359287 959.991127 819.359287 268.301208zM756.350238 1023.29821l251.491478 0L1007.841717 205.49454 756.350238 205.49454 756.350238 1023.29821z" p-id="15291" fill="#f0a241"></path></svg>