<?xml version="1.0" standalone="no"?><!DOCTYPE svg PUBLIC "-//W3C//DTD SVG 1.1//EN" "http://www.w3.org/Graphics/SVG/1.1/DTD/svg11.dtd"><svg t="1558666187774" class="icon" style="" viewBox="0 0 1024 1024" version="1.1" xmlns="http://www.w3.org/2000/svg" p-id="12962" data-spm-anchor-id="a313x.7781069.0.i11" xmlns:xlink="http://www.w3.org/1999/xlink" width="48" height="48"><defs><style type="text/css"></style></defs><path d="M238.933333 349.3888v325.2224l273.066667 136.533333 273.066667-136.533333v-325.2224l-273.066667-136.533333-273.066667 136.533333z m288.324267-205.2096l307.2 153.6a34.133333 34.133333 0 0 1 18.875733 30.5152v367.4112a34.133333 34.133333 0 0 1-18.875733 30.5152l-307.2 153.6a34.133333 34.133333 0 0 1-30.5152 0l-307.2-153.6A34.133333 34.133333 0 0 1 170.666667 695.7056V328.2944a34.133333 34.133333 0 0 1 18.875733-30.5152l307.2-153.6a34.133333 34.133333 0 0 1 30.5152 0zM512 665.6a153.6 153.6 0 1 1 0-307.2 153.6 153.6 0 0 1 0 307.2z m0-68.266667a85.333333 85.333333 0 1 0 0-170.666666 85.333333 85.333333 0 0 0 0 170.666666z" p-id="12963" data-spm-anchor-id="a313x.7781069.0.i12" class="selected" fill="#707070"></path></svg>